<svg version="1.1" width="90" height="45" id="logo" xmlns="http://www.w3.org/2000/svg" xmlns:xlink="http://www.w3.org/1999/xlink" x="0px" y="0px" viewBox="0 0 90 45" style="enable-background:new 0 0 90 45;" xml:space="preserve">
<path class="bg" fill='yellow' d="M44.8,0h45v45h-45V0z"></path>
<path class="up" d="M58.1,26.8c-0.7,0-1.4,0-2.2-0.3c-0.2-0.1-0.9-0.4-1.4-1c-0.1-0.1-0.2-0.3-0.2-0.4c-0.2-0.4-0.4-0.8-0.5-1.2
                c-0.1-0.6-0.2-1.2-0.2-1.8V9.2h-3.7v13c0,1.2,0.2,2.4,0.6,3.3c0.4,1,1,1.9,1.7,2.5c0.8,0.7,1.6,1.2,2.6,1.6c1,0.4,2.1,0.6,3.3,0.6
                c1.2,0,2.3-0.2,3.3-0.6s1.9-0.9,2.6-1.6c0.8-0.7,1.3-1.5,1.7-2.5c0.4-1,0.6-2.1,0.6-3.3v-13h-3.7V22c0,0.6-0.1,1.2-0.2,1.8
                c-0.1,0.4-0.3,0.9-0.5,1.2c0,0-0.1,0.2-0.2,0.4c-0.5,0.6-1.2,1-1.4,1C59.5,26.8,58.8,26.8,58.1,26.8 M73.1,15.4c0,0.6,0,1.2,0,1.9
                c0.2-0.2,0.4-0.4,0.7-0.6c0.4-0.3,0.7-0.5,0.9-0.6c0.7-0.3,1.2-0.5,1.5-0.5c0.9-0.2,1.7-0.1,2-0.1c1.2,0.1,2,0.4,2.5,0.7
                c0.8,0.4,1.3,0.8,1.5,0.9c0.2,0.2,0.5,0.4,0.7,0.6c0.6,0.7,1.1,1.4,1.4,2.3s0.5,1.9,0.5,2.9c0,1-0.2,2-0.5,2.9
                c-0.3,0.9-0.8,1.7-1.4,2.3c-0.6,0.7-1.3,1.2-2.1,1.6c-1.2,0.6-2.3,0.6-2.9,0.6c-0.5,0-1.6,0-2.8-0.5c-0.9-0.4-1.5-0.8-1.9-1.2
                c0,2.8,0,5.5,0,8.2h-3.5c0-7.1,0-14.3,0-21.4C70.9,15.4,72,15.4,73.1,15.4z M81.9,22.8c0-0.5-0.1-1.1-0.2-1.6
                c-0.2-0.5-0.4-1-0.8-1.4c-0.3-0.4-0.8-0.8-1.3-1c-0.5-0.3-1.1-0.4-1.8-0.4c-0.7,0-1.2,0.1-1.8,0.4c-0.5,0.3-1,0.6-1.3,1
                c-0.4,0.4-0.6,0.9-0.8,1.4c-0.2,0.5-0.3,1.1-0.3,1.6c0,0.5,0.1,1.1,0.3,1.6c0.2,0.5,0.5,1,0.8,1.4c0.4,0.4,0.8,0.8,1.3,1
                c0.5,0.3,1.1,0.4,1.8,0.4c0.7,0,1.3-0.1,1.8-0.4c0.5-0.3,1-0.6,1.3-1c0.3-0.4,0.6-0.9,0.8-1.4C81.8,23.9,81.9,23.4,81.9,22.8z
                 M69.8,9.2h15v3.3h-15V9.2z"></path>
<path class="jet" d="M12.2,23.1c0,0.8-0.1,1.5-0.2,2.4c-0.2,0.8-0.5,1.6-0.9,2.3s-1.1,1.3-1.9,1.8C8.4,30,7.3,30.3,6,30.3c-1.7,0-3-0.4-4-1.2
                c-1-0.8-1.7-1.9-2-3.3l3.4-1c0.2,0.7,0.5,1.2,1,1.6C4.8,26.8,5.3,27,6,27c0.5,0,1-0.1,1.3-0.3c0.3-0.2,0.6-0.5,0.8-0.8
                c0.2-0.4,0.3-0.8,0.4-1.3s0.1-1,0.1-1.6V9.2h3.7L12.2,23.1L12.2,23.1z M29.2,19.7c-0.3-1-0.8-1.7-1.4-2.4c-0.6-0.6-1.3-1.1-2.1-1.4
                c-0.8-0.3-1.7-0.5-2.7-0.5c-1,0-2,0.2-2.9,0.5c-0.9,0.4-1.7,0.9-2.4,1.5c-0.7,0.7-1.2,1.4-1.6,2.4c-0.4,0.9-0.6,2-0.6,3.1
                c0,1.1,0.2,2.2,0.6,3.1c0.4,0.9,0.9,1.7,1.6,2.3c0.7,0.6,1.5,1.1,2.4,1.4c0.9,0.3,1.9,0.5,3,0.5c2.6,0,4.6-0.9,6-2.8c0,0,0,0,0-0.1
                c-1.1-0.3-2.1-0.6-3.2-0.9c-0.1,0.1-0.3,0.3-0.6,0.4c-0.9,0.5-1.8,0.5-2.2,0.5c-0.5,0-1-0.1-1.5-0.3c-0.5-0.2-0.9-0.4-1.3-0.7
                c-0.4-0.3-0.7-0.7-0.9-1.1c-0.2-0.4-0.4-0.9-0.4-1.4h10.7c0-0.1,0-0.3,0-0.5c0-0.1,0-0.3,0-0.5C29.7,21.7,29.6,20.6,29.2,19.7z
                 M19,21.2c0.1-0.9,0.5-1.6,1.2-2.2s1.6-0.9,2.7-0.9c0.6,0,1,0.1,1.5,0.2c0.4,0.2,0.8,0.4,1,0.7c0.3,0.3,0.5,0.6,0.6,1
                c0.1,0.4,0.2,0.8,0.2,1.1C26.3,21.2,19,21.2,19,21.2z M36.4,19.2c0,0,0-0.1,0-0.1c0-0.3,0-0.7,0-1h3.3v-2.7h-3.3v-2.8h-3.3v2.8h-2.4
                v2.7h2.4c0,0.4,0,0.7,0,1.1l0,0v6.3c0,0.7,0,1.3,0.2,1.8c0.1,0.6,0.3,1.1,0.7,1.5c0.3,0.4,0.8,0.8,1.3,1c0.6,0.2,1.3,0.4,2.2,0.4
                c0.2,0,0.6,0,1.2-0.1c0.4-0.1,0.8-0.2,1.1-0.3c0-0.9,0-1.9,0-2.8c-0.2,0.1-0.5,0.1-0.8,0.2c-0.1,0-0.4,0.1-0.6,0.1
                c-0.3,0-0.9,0-1.2-0.2c-0.7-0.5-0.7-1.6-0.7-1.7L36.4,19.2L36.4,19.2z"></path>
</svg>